Coordinates
version=1
nRows=60
nColumns=12
inDegrees=yes

Units are S.I. units (second, meters, Newtons, ...)
Angles are in degrees

endheader
time	SC_y	SC_z	SC_x	AC_y	AC_z	AC_x	GH_y	GH_z	GH_yy	EL_x	PS_y
       0.0              -45.23          9.956          38.97          55.95         -4.859         -4.513          61.88          31.17         -24.42          101.1          77.29
   0.03307              -45.22          9.956          38.96          55.95         -4.857         -4.513          61.86          31.17         -24.43          101.1          77.29
   0.06615              -45.22          9.957          38.96          55.95         -4.856         -4.513          61.83          31.16         -24.44          101.1          77.29
   0.09922              -45.22          9.957          38.95          55.95         -4.854         -4.514          61.79          31.16         -24.44          101.0          77.29
    0.1323              -45.21          9.957          38.94          55.96         -4.852         -4.514          61.76          31.16         -24.45          101.0          77.29
    0.1654              -45.21          9.957          38.94          55.96          -4.85         -4.515          61.72          31.16         -24.46          101.0          77.29
    0.1984               -45.2          9.958          38.93          55.96         -4.848         -4.515          61.68          31.15         -24.47          101.0          77.29
    0.2315               -45.2          9.958          38.92          55.96         -4.846         -4.516          61.64          31.15         -24.48          101.0          77.29
    0.2646              -45.19          9.958          38.91          55.97         -4.843         -4.516           61.6          31.15         -24.49          101.0          77.29
    0.2977              -45.19          9.959           38.9          55.97         -4.841         -4.517          61.55          31.14          -24.5          101.0          77.28
    0.3307              -45.18          9.959          38.89          55.97         -4.838         -4.518           61.5          31.14         -24.51          101.0          77.28
    0.3638              -45.17           9.96          38.88          55.98         -4.835         -4.518          61.44          31.13         -24.53          101.0          77.28
    0.3969              -45.17           9.96          38.87          55.98         -4.832         -4.519          61.39          31.13         -24.54          100.9          77.28
    0.4299              -45.16           9.96          38.86          55.98         -4.828          -4.52          61.32          31.12         -24.55          100.9          77.28
     0.463              -45.15          9.961          38.85          55.99         -4.824         -4.521          61.25          31.11         -24.57          100.9          77.28
    0.4961              -45.14          9.962          38.83          55.99          -4.82         -4.522          61.18          31.11         -24.59          100.9          77.27
    0.5292              -45.13          9.962          38.82           56.0         -4.816         -4.523           61.1           31.1         -24.61          100.9          77.27
    0.5622              -45.12          9.963           38.8           56.0         -4.811         -4.524          61.01          31.09         -24.63          100.8          77.27
    0.5953              -45.11          9.964          38.78          56.01         -4.805         -4.526          60.91          31.08         -24.65          100.8          77.27
    0.6284               -45.1          9.965          38.76          56.02           -4.8         -4.527           60.8          31.08         -24.68          100.8          77.26
    0.6615              -45.09          9.965          38.74          56.02         -4.793         -4.529          60.69          31.06         -24.71          100.8          77.26
    0.6945              -45.07          9.966          38.72          56.03         -4.786          -4.53          60.56          31.05         -24.74          100.7          77.26
    0.7276              -45.06          9.968          38.69          56.04         -4.778         -4.532          60.42          31.04         -24.77          100.7          77.25
    0.7607              -45.04          9.969          38.66          56.05          -4.77         -4.534          60.26          31.03         -24.81          100.6          77.25
    0.7938              -45.02           9.97          38.63          56.06          -4.76         -4.537          60.08          31.01         -24.85          100.6          77.24
    0.8268              -44.99          9.972          38.59          56.07          -4.75         -4.539          59.89          30.99         -24.89          100.5          77.24
    0.8599              -44.97          9.973          38.55          56.09         -4.738         -4.542          59.67          30.98         -24.95          100.5          77.23
     0.893              -44.94          9.975           38.5           56.1         -4.724         -4.545          59.42          30.95          -25.0          100.4          77.23
     0.926              -44.91          9.977          38.45          56.12         -4.709         -4.549          59.15          30.93         -25.07          100.3          77.22
    0.9591              -44.87           9.98          38.39          56.14         -4.692         -4.553          58.83           30.9         -25.14          100.3          77.21
    0.9922              -44.83          9.983          38.32          56.16         -4.672         -4.558          58.47          30.87         -25.23          100.2           77.2
     1.025              -44.78          9.986          38.24          56.19         -4.649         -4.564          58.06          30.83         -25.33          100.1          77.19
     1.058              -44.73           9.99          38.15          56.22         -4.623          -4.57          57.58          30.79         -25.44          99.93          77.18
     1.091              -44.66          9.994          38.05          56.25         -4.593         -4.577          57.03          30.74         -25.57          99.78          77.16
     1.124              -44.59          9.999          37.93          56.29         -4.557         -4.586          56.38          30.69         -25.72          99.61          77.14
     1.158               -44.5           10.0          37.78          56.34         -4.516         -4.596          55.61          30.62          -25.9          99.41          77.12
     1.191              -44.39          10.01          37.61           56.4         -4.466         -4.608           54.7          30.54         -26.12          99.16           77.1
     1.224              -44.27          10.02          37.41          56.47         -4.406         -4.623          53.62          30.44         -26.38          98.87          77.07
     1.257              -44.11          10.03          37.16          56.55         -4.334          -4.64           52.3          30.33         -26.69          98.52          77.04
      1.29              -43.93          10.04          36.85          56.65         -4.246         -4.662          50.69          30.19         -27.07           98.1          76.99
     1.323               -43.7          10.06          36.48          56.77         -4.137         -4.688           48.7          30.01         -27.54          97.57          76.94
     1.356              -43.41          10.08          36.01          56.93         -4.002         -4.721          46.22           29.8         -28.13          96.91          76.87
     1.389              -43.05           10.1          35.42          57.12         -3.831         -4.763           43.1          29.52         -28.86          96.08          76.79
     1.422              -42.58          10.13          34.67          57.37         -3.614         -4.816          39.14          29.17          -29.8          95.03          76.68
     1.455              -41.99          10.17          33.71          57.69         -3.336         -4.883          34.06          28.73          -31.0          93.68          76.55
     1.488              -41.24          10.22          32.48           58.1          -2.98          -4.97          27.54          28.16         -32.54          91.95          76.37
     1.521              -40.27          10.29          30.91          58.62         -2.524         -5.081          19.22          27.42         -34.51          89.73          76.15
     1.554              -39.06          10.37          28.94          59.28         -1.952         -5.221          8.751          26.51         -36.99          86.95          75.87
     1.588              -37.58          10.47          26.53          60.08         -1.254          -5.39         -4.003          25.39          -40.0          83.56          75.52
     1.621              -35.86          10.58          23.74           61.0         -0.445         -5.587         -18.79          24.09          -43.5          79.63          75.13
     1.654               -34.0          10.71          20.72          62.01         0.4309         -5.801         -34.79          22.68         -47.28          75.38           74.7
     1.687              -32.14          10.83          17.69          63.01          1.307         -6.014          -50.8          21.28         -51.07          71.13          74.27
      1.72              -30.43          10.95           14.9          63.94          2.116         -6.211         -65.59          19.98         -54.56           67.2          73.87
     1.753              -28.94          11.05          12.49          64.74          2.813         -6.381         -78.34          18.86         -57.58          63.81          73.53
     1.786              -27.73          11.13          10.52          65.39          3.386          -6.52         -88.81          17.94         -60.06          61.03          73.25
     1.819              -26.76           11.2          8.947          65.92          3.842         -6.631         -97.13          17.21         -62.02          58.82          73.02
     1.852              -26.01          11.25          7.717          66.32          4.198         -6.718         -103.6          16.64         -63.56          57.08          72.85
     1.885              -25.42          11.29          6.758          66.64          4.476         -6.786         -108.7          16.19         -64.77          55.73          72.71
     1.918              -24.96          11.32          6.009          66.89          4.693         -6.839         -112.7          15.85          -65.7          54.68           72.6
     1.951              -24.59          11.34           5.42          67.09          4.864          -6.88         -115.8          15.57         -66.44          53.85          72.52
